<?xml version="1.0" standalone="no"?>
<!DOCTYPE svg PUBLIC "-//W3C//DTD SVG 20010904//EN"
 "http://www.w3.org/TR/2001/REC-SVG-20010904/DTD/svg10.dtd">
<svg version="1.0" xmlns="http://www.w3.org/2000/svg"
 width="3335.000000pt" height="3335.000000pt" viewBox="0 0 3335.000000 3335.000000"
 preserveAspectRatio="xMidYMid meet">
<metadata>
Created by potrace 1.14, written by Peter Selinger 2001-2017
</metadata>
<g transform="translate(0.000000,3335.000000) scale(0.100000,-0.100000)"
fill="#000000" stroke="none">
<path d="M395 32551 c-198 -57 -356 -235 -385 -436 -7 -48 -10 -4959 -8
-15475 l3 -15405 22 -66 c61 -178 215 -319 394 -361 80 -19 32428 -19 32508 0
179 42 333 183 394 361 l22 66 3 15405 c2 10516 -1 15427 -8 15475 -30 205
-194 387 -396 439 -56 15 -1511 16 -16275 15 -15318 0 -16217 -1 -16274 -18z
m5155 -9661 l0 -8600 1005 0 1005 0 0 -6205 0 -6205 -3235 0 -3235 0 0 14805
0 14805 2230 0 2230 0 0 -8600z m8500 0 l0 -8600 1000 0 1000 0 0 -6205 0
-6205 -3705 0 -3705 0 0 6205 0 6205 1005 0 1005 0 0 8600 0 8600 1700 0 1700
0 0 -8600z m8490 0 l0 -8600 1005 0 1005 0 0 -6205 0 -6205 -3705 0 -3705 0 0
6205 0 6205 1005 0 1005 0 0 8600 0 8600 1695 0 1695 0 0 -8600z m9720 -6205
l0 -14805 -3315 0 -3315 0 0 6205 0 6205 1005 0 1005 0 0 8600 0 8600 2310 0
2310 0 0 -14805z"/>
</g>
</svg>
