<?xml version="1.0" standalone="no"?>
<!DOCTYPE svg PUBLIC "-//W3C//DTD SVG 20010904//EN"
 "http://www.w3.org/TR/2001/REC-SVG-20010904/DTD/svg10.dtd">
<svg version="1.0" xmlns="http://www.w3.org/2000/svg"
 width="700.000000pt" height="700.000000pt" viewBox="0 0 700.000000 700.000000"
 preserveAspectRatio="xMidYMid meet">
<metadata>
Created by potrace 1.14, written by Peter Selinger 2001-2017
</metadata>
<g transform="translate(0.000000,700.000000) scale(0.100000,-0.100000)"
fill="#000000" stroke="none">
<path d="M1110 5750 l0 -60 88 -1 c48 0 96 -2 107 -4 11 -2 42 -7 69 -10 103
-14 230 -71 290 -131 65 -66 85 -132 93 -299 9 -171 8 -3267 0 -3455 -6 -153
-19 -208 -63 -290 -52 -96 -165 -159 -319 -176 -95 -11 -120 -12 -192 -13
l-73 -1 0 -60 0 -60 990 0 990 0 0 60 0 60 -67 1 c-72 1 -77 1 -187 13 -74 8
-86 12 -183 58 -107 51 -183 136 -198 220 -12 67 -16 244 -21 991 l-6 817
1072 0 1072 0 -6 -822 c-3 -453 -8 -850 -11 -883 -10 -119 -52 -213 -122 -274
-100 -87 -212 -117 -455 -120 l-68 -1 0 -60 0 -60 990 0 990 0 0 60 0 60 -62
1 c-215 2 -342 33 -448 110 -68 50 -93 85 -122 174 -19 59 -22 331 -22 1970
-1 1560 1 1747 22 1835 46 190 235 287 565 289 l67 1 0 60 0 60 -990 0 -990 0
0 -60 0 -60 63 -1 c184 -2 292 -24 397 -80 113 -60 168 -142 185 -279 3 -25 8
-408 11 -852 l6 -808 -1072 0 -1071 0 2 763 c3 921 7 985 76 1076 40 52 70 76
138 109 109 54 190 69 383 71 l62 1 0 60 0 60 -990 0 -990 0 0 -60z"/>
</g>
</svg>
